# xmcd
#
# Track frame offsets: 
#        150
#        27252
#        71889
#        100504
#        120075
#        151373
#        185805
#        222652
#
# Disc length: 3331 seconds
#
# Revision: 1
# Processed by: cddbd v1.5.2PL0 Copyright (c) Steve Scherf et al.
# Submitted via: ExactAudioCopy v1.0b4
#
DISCID=6c0d0108
DTITLE=Lester Butler featuring 13 - Live @ Tamines 1997  disc 1
DYEAR=2015
DGENRE=Blues
TTITLE0=In The Nighttime
TTITLE1=Down In New Orleans
TTITLE2=I Wish You Would
TTITLE3=Automatic
TTITLE4=So Low Down
TTITLE5=Left Overs
TTITLE6=I'll Cry For You
TTITLE7=Devil Woman
EXTD=
EXTT0=
EXTT1=
EXTT2=
EXTT3=
EXTT4=
EXTT5=
EXTT6=
EXTT7=
PLAYORDER=
